<?xml version="1.0" standalone="no"?>
<!DOCTYPE svg PUBLIC "-//W3C//DTD SVG 20010904//EN"
 "http://www.w3.org/TR/2001/REC-SVG-20010904/DTD/svg10.dtd">
<svg version="1.0" xmlns="http://www.w3.org/2000/svg"
 width="700.000000pt" height="700.000000pt" viewBox="0 0 700.000000 700.000000"
 preserveAspectRatio="xMidYMid meet">
<metadata>
Created by potrace 1.14, written by Peter Selinger 2001-2017
</metadata>
<g transform="translate(0.000000,700.000000) scale(0.100000,-0.100000)"
fill="#000000" stroke="none">
<path d="M4810 6804 c-277 -58 -485 -255 -561 -529 -21 -79 -29 -236 -15 -300
17 -77 18 -92 5 -92 -30 -1 -203 -15 -218 -18 -9 -2 -63 -6 -121 -10 -58 -4
-112 -8 -120 -10 -15 -3 -129 -13 -228 -20 -56 -4 -191 -16 -337 -30 -66 -7
-142 -13 -240 -20 -44 -3 -93 -8 -110 -10 -176 -24 -515 -24 -640 -1 -11 2
-56 7 -100 10 -44 4 -102 9 -130 12 -27 2 -75 6 -105 9 -30 2 -75 7 -100 10
-25 2 -74 7 -110 10 -112 9 -194 16 -235 20 -22 2 -71 7 -110 10 -38 3 -88 8
-110 10 -22 3 -71 7 -110 10 -38 3 -88 7 -110 10 -22 2 -74 7 -115 10 -41 3
-88 8 -105 10 -16 2 -66 7 -110 10 -44 3 -91 8 -105 10 -29 6 -82 -23 -104
-57 -16 -24 -16 -30 -42 -323 -2 -33 -7 -80 -9 -105 -3 -25 -7 -74 -10 -110
-3 -36 -8 -87 -10 -115 -4 -47 -6 -70 -20 -220 -3 -33 -8 -85 -10 -115 -3 -30
-7 -81 -10 -115 -3 -33 -8 -85 -10 -115 -3 -30 -7 -84 -10 -120 -6 -66 -9 -97
-20 -230 -3 -41 -8 -91 -10 -110 -4 -34 -10 -97 -20 -217 -2 -32 -7 -89 -11
-128 -4 -38 -8 -86 -9 -105 -4 -55 -16 -192 -21 -225 -2 -16 -6 -66 -9 -110
-3 -44 -8 -96 -10 -115 -6 -56 -15 -149 -20 -230 -3 -41 -7 -91 -10 -110 -2
-19 -7 -73 -10 -120 -4 -47 -8 -96 -10 -110 -3 -14 -7 -61 -10 -105 -3 -44 -7
-93 -9 -110 -2 -16 -6 -68 -10 -115 -4 -47 -9 -101 -11 -120 -3 -19 -7 -66
-10 -105 -3 -38 -7 -90 -9 -115 -3 -25 -7 -76 -11 -115 -3 -38 -8 -92 -10
-120 -11 -123 -17 -183 -20 -220 -2 -22 -7 -74 -9 -115 -3 -41 -8 -95 -11
-120 -3 -25 -7 -74 -10 -110 -3 -36 -7 -81 -10 -100 -2 -19 -7 -75 -10 -125
-4 -49 -8 -103 -10 -120 -22 -163 -13 -226 39 -260 23 -15 39 -18 186 -30 41
-3 95 -8 120 -10 25 -3 77 -7 115 -10 39 -2 95 -7 125 -10 60 -5 138 -12 240
-20 70 -5 147 -12 238 -20 97 -9 164 -15 237 -20 39 -3 90 -8 115 -10 25 -2
82 -7 127 -10 46 -4 91 -8 100 -10 10 -2 25 -4 33 -4 9 -1 23 -22 33 -50 11
-31 29 -58 48 -72 31 -22 64 -22 249 -4 56 5 159 14 235 20 39 3 86 7 105 10
189 23 249 23 500 0 19 -2 76 -6 125 -10 50 -4 98 -9 108 -11 10 -2 58 -6 105
-9 48 -3 98 -8 112 -10 14 -2 63 -7 110 -10 47 -3 101 -8 120 -10 51 -6 149
-14 345 -30 74 -6 141 -12 215 -20 25 -2 74 -7 110 -10 36 -2 117 -9 180 -15
63 -6 144 -13 180 -15 36 -3 83 -8 105 -10 22 -2 69 -7 105 -10 36 -3 92 -8
125 -11 33 -2 80 -7 105 -10 254 -27 268 -17 286 211 3 50 8 101 9 115 2 14 3
46 4 72 1 54 1 54 111 63 41 3 91 8 110 10 19 2 69 7 110 10 77 5 146 11 235
20 28 2 82 7 120 10 39 3 90 8 115 10 25 3 72 7 105 10 33 3 80 7 105 10 25 2
77 7 115 10 70 5 149 12 235 20 25 2 77 7 115 10 106 10 126 14 162 36 42 26
56 72 49 157 -3 37 -8 96 -11 132 -3 36 -8 83 -10 105 -3 22 -7 72 -10 110 -3
39 -7 88 -10 110 -3 22 -7 72 -10 110 -3 39 -7 93 -10 120 -10 113 -15 163
-20 230 -3 39 -8 88 -10 110 -4 41 -10 107 -20 225 -9 106 -15 172 -20 220 -2
25 -7 81 -11 125 -4 44 -8 94 -9 110 -2 17 -6 66 -10 110 -4 44 -8 94 -10 110
-2 17 -6 64 -9 105 -7 78 -13 152 -21 230 -3 25 -7 81 -10 125 -3 44 -7 91
-10 105 -2 14 -6 65 -10 114 -4 50 -8 97 -10 105 -1 9 -6 60 -10 113 -3 54 -8
110 -10 126 -2 15 -6 64 -9 108 -4 43 -8 95 -11 114 -2 19 -7 71 -10 115 -3
44 -8 94 -10 110 -2 17 -7 64 -10 105 -6 82 -19 233 -40 460 -2 25 -7 74 -10
110 -3 36 -7 90 -10 120 -3 30 -7 80 -10 110 -3 30 -7 80 -10 110 -2 30 -7 84
-10 120 -4 36 -8 81 -10 100 -2 19 -7 73 -10 120 -3 47 -8 103 -10 125 -3 22
-7 63 -10 90 -6 59 -28 93 -76 118 -28 15 -48 17 -118 12 -47 -4 -92 -8 -100
-10 -9 -1 -56 -6 -106 -10 -49 -4 -110 -9 -135 -11 -102 -9 -148 -13 -210 -19
-36 -3 -82 -8 -102 -9 l-37 -4 0 87 c0 340 -223 624 -561 712 -66 17 -225 19
-300 3z m293 -255 c237 -80 374 -333 312 -574 -67 -255 -332 -412 -584 -346
-376 99 -489 565 -200 825 126 113 309 150 472 95z m1221 -728 c2 -3 7 -50 10
-103 4 -53 8 -105 10 -115 2 -10 7 -62 11 -116 3 -54 8 -108 10 -120 2 -12 6
-62 9 -112 4 -49 8 -101 11 -115 2 -14 7 -65 11 -115 8 -116 8 -111 29 -345 3
-30 7 -80 10 -110 9 -109 16 -186 20 -225 2 -22 6 -70 9 -107 14 -161 18 -205
21 -238 2 -19 7 -71 10 -115 13 -157 14 -171 19 -220 3 -27 8 -86 12 -130 3
-44 8 -87 9 -96 2 -9 6 -65 10 -125 4 -60 9 -116 10 -124 2 -8 6 -49 9 -90 11
-129 16 -183 21 -238 3 -29 7 -77 10 -107 2 -30 6 -80 9 -112 4 -32 8 -83 10
-113 6 -71 18 -208 21 -240 2 -14 6 -59 9 -100 10 -115 17 -192 21 -230 2 -19
7 -71 10 -115 4 -44 8 -96 10 -115 2 -19 6 -69 9 -110 4 -41 9 -95 11 -120 15
-167 20 -229 30 -350 4 -47 9 -93 10 -102 5 -22 -9 -25 -120 -33 -49 -4 -106
-8 -125 -10 -19 -2 -69 -6 -110 -10 -41 -4 -88 -8 -105 -9 -16 -2 -68 -7 -115
-11 -47 -4 -101 -8 -120 -10 -19 -2 -69 -6 -110 -9 -41 -4 -95 -9 -120 -11
-55 -5 -143 -13 -230 -20 -36 -3 -85 -7 -110 -10 -25 -2 -74 -7 -110 -10 -64
-5 -143 -12 -230 -20 -25 -2 -79 -7 -120 -11 -41 -3 -91 -7 -110 -9 -19 -2
-69 -6 -110 -9 -41 -4 -95 -9 -120 -11 -56 -6 -122 -12 -220 -20 -41 -3 -95
-8 -120 -10 -25 -3 -79 -7 -120 -11 -41 -3 -88 -7 -105 -9 -16 -2 -66 -6 -110
-10 -44 -4 -96 -8 -115 -10 -19 -2 -73 -6 -120 -10 -47 -3 -96 -8 -110 -10
-14 -2 -68 -6 -120 -10 -52 -3 -102 -8 -110 -10 -8 -2 -53 -6 -100 -10 -47 -4
-101 -8 -120 -10 -19 -2 -71 -6 -115 -9 -44 -4 -98 -9 -120 -11 -40 -4 -119
-11 -230 -21 -33 -2 -78 -6 -100 -8 -22 -3 -76 -7 -120 -11 -44 -4 -96 -8
-115 -10 -19 -2 -73 -6 -120 -10 -47 -4 -96 -8 -110 -10 -14 -3 -65 -7 -115
-10 -49 -4 -92 -8 -95 -10 -18 -11 -29 21 -35 105 -3 52 -8 106 -10 120 -2 14
-7 59 -10 100 -3 41 -8 95 -10 120 -4 46 -11 117 -20 233 -3 34 -8 82 -10 107
-2 25 -7 77 -10 115 -5 65 -7 92 -20 228 -3 28 -7 79 -10 112 -3 33 -7 83 -10
110 -2 28 -7 86 -10 130 -3 44 -8 96 -10 115 -2 19 -7 67 -10 105 -6 71 -10
119 -19 210 -3 28 -8 82 -11 120 -3 39 -7 90 -10 115 -2 25 -7 81 -10 125 -4
44 -8 91 -10 105 -2 14 -6 64 -10 112 -3 49 -8 96 -9 105 -2 10 -7 63 -11 118
-9 118 -10 135 -20 240 -4 44 -9 100 -11 125 -2 25 -6 70 -8 100 -3 30 -8 82
-11 115 -3 33 -7 80 -9 105 -3 25 -7 81 -11 125 -3 44 -8 94 -10 110 -2 17 -7
71 -10 120 -3 50 -8 102 -11 116 -2 15 -6 62 -9 105 -5 76 -9 124 -20 229 -6
55 -11 124 -20 230 -3 39 -7 86 -10 105 -5 49 -19 211 -19 234 0 21 3 22 114
31 41 4 89 8 105 9 17 2 68 6 115 10 47 4 101 9 120 11 19 3 64 7 100 10 36 3
81 7 100 10 19 2 76 7 125 10 50 4 101 8 115 10 14 2 59 6 100 10 41 3 89 10
105 15 17 5 73 12 125 15 52 3 102 8 110 10 8 2 56 6 105 10 50 4 106 8 125
10 19 2 67 6 105 10 39 3 93 8 120 10 104 10 152 14 230 20 44 3 94 8 110 10
17 2 66 7 110 10 44 3 94 7 110 10 17 2 66 6 110 10 44 3 94 8 110 10 17 2 75
7 130 10 55 4 105 10 110 12 6 3 -121 -127 -282 -288 -161 -162 -297 -307
-303 -322 -16 -44 -4 -88 35 -124 29 -28 42 -33 82 -33 l47 0 308 307 308 307
28 -17 c50 -33 146 -76 207 -93 80 -21 243 -26 325 -9 196 42 371 164 470 327
l35 56 75 7 c41 3 98 8 125 10 28 3 84 7 125 10 41 3 93 8 115 10 22 2 83 7
135 10 52 4 96 8 98 10 6 5 53 2 56 -4z m-5494 -176 c36 -3 79 -8 95 -10 17
-2 62 -7 100 -10 60 -4 138 -12 210 -20 11 -1 30 -3 42 -4 21 -1 22 -2 7 -38
-15 -36 -15 -79 1 -248 2 -22 6 -71 10 -110 3 -38 8 -92 10 -120 3 -27 7 -77
10 -110 2 -33 7 -85 10 -115 6 -57 9 -92 20 -225 3 -44 8 -96 10 -115 2 -19 6
-71 10 -115 3 -44 8 -96 10 -115 3 -19 7 -71 10 -115 3 -44 8 -96 10 -115 2
-19 7 -66 10 -105 3 -38 8 -90 10 -115 3 -25 7 -74 10 -110 7 -92 15 -179 20
-220 3 -19 7 -73 10 -120 3 -47 8 -96 10 -110 2 -14 7 -68 10 -120 3 -52 8
-102 10 -110 2 -8 6 -55 10 -105 3 -49 8 -101 10 -115 2 -14 7 -64 10 -112 4
-49 8 -100 10 -115 2 -16 6 -71 10 -123 3 -52 8 -102 10 -110 2 -8 7 -60 10
-115 4 -55 8 -102 10 -105 2 -3 6 -50 10 -105 3 -55 8 -111 10 -125 2 -14 6
-63 10 -110 4 -47 8 -98 9 -115 2 -16 6 -66 10 -110 4 -44 9 -100 12 -125 2
-25 6 -72 9 -105 11 -134 16 -192 20 -230 2 -22 6 -67 9 -100 3 -33 8 -91 11
-130 4 -38 9 -90 11 -113 l3 -44 -87 7 c-48 4 -103 8 -122 10 -19 2 -75 6
-125 10 -49 3 -101 8 -115 10 -14 2 -65 7 -115 10 -49 4 -106 8 -125 10 -19 2
-75 6 -125 10 -49 4 -101 8 -115 10 -26 3 -108 10 -245 21 -44 3 -93 8 -110
10 -16 1 -52 4 -80 5 -48 2 -79 14 -71 28 4 7 13 93 21 211 3 41 7 91 10 110
2 19 7 71 10 115 3 44 8 91 10 105 2 14 6 61 9 105 4 44 9 109 13 145 3 36 7
81 8 100 2 35 12 142 21 235 2 28 7 75 9 105 3 30 8 78 10 105 3 28 7 82 10
120 7 95 15 183 20 225 2 19 7 71 10 115 3 44 8 98 10 120 4 40 12 131 20 215
2 25 7 79 10 120 3 41 8 91 10 110 3 19 7 73 10 120 3 47 7 101 10 120 2 19 7
67 10 105 3 39 8 94 10 123 20 219 26 284 30 332 13 155 18 208 21 235 1 17 6
66 9 110 4 44 8 96 10 115 2 19 6 76 10 125 4 50 9 97 10 106 2 8 6 55 10 105
3 49 8 100 10 114 3 14 7 63 11 110 3 47 7 101 9 120 2 19 7 76 10 125 4 50 9
104 11 120 2 17 6 63 10 104 3 40 8 80 9 90 2 9 4 22 4 29 1 9 13 11 44 8 23
-3 71 -8 107 -11z m4234 -5107 c-6 -91 -10 -112 -22 -104 -4 2 -46 7 -92 11
-47 3 -96 8 -110 10 -14 2 -65 7 -115 11 -49 3 -103 8 -120 9 -116 11 -178 16
-235 21 -36 2 -81 7 -100 9 -32 4 -197 17 -228 18 -22 1 -3 10 25 12 16 1 64
6 108 10 103 9 133 12 230 20 44 3 96 8 115 10 33 4 118 11 220 20 25 2 86 7
135 11 50 3 91 7 93 8 1 2 25 4 52 5 l50 1 -6 -82z"/>
<path d="M5638 4305 c-3 -3 -54 -8 -193 -21 -38 -4 -77 -8 -85 -10 -8 -1 -25
-3 -37 -3 -33 -1 -91 -57 -102 -98 -13 -47 7 -96 51 -123 27 -17 44 -20 93
-15 33 3 87 8 120 11 268 23 278 26 316 98 l24 46 -20 37 c-28 50 -66 76 -119
79 -24 1 -46 1 -48 -1z"/>
<path d="M4817 4224 c-1 -2 -38 -5 -82 -9 -44 -3 -98 -8 -120 -10 -22 -2 -74
-7 -115 -10 -41 -4 -91 -8 -110 -10 -19 -2 -71 -6 -115 -9 -44 -4 -98 -9 -120
-11 -22 -3 -71 -7 -110 -10 -78 -7 -107 -21 -135 -68 -30 -49 -26 -91 14 -135
32 -34 39 -37 88 -37 56 0 242 13 293 20 17 3 64 7 105 10 41 3 98 8 125 10
28 2 79 7 115 10 36 2 99 7 140 11 90 7 128 23 158 67 52 78 -2 177 -101 181
-15 1 -29 1 -30 0z"/>
<path d="M3508 4115 c-2 -1 -39 -5 -83 -9 -44 -3 -127 -10 -185 -16 -58 -5
-132 -12 -165 -15 -133 -11 -193 -16 -335 -30 -25 -3 -76 -7 -115 -10 -215
-16 -241 -24 -275 -89 -29 -53 -22 -86 26 -134 l35 -35 107 8 c113 8 136 9
247 20 83 7 123 11 230 20 44 4 96 8 115 10 19 2 73 7 120 10 47 4 99 9 115
11 17 2 66 6 110 9 44 4 95 11 113 17 45 14 86 70 85 118 -1 39 -33 93 -62
106 -17 7 -78 14 -83 9z"/>
<path d="M5728 3585 c-2 -1 -39 -6 -83 -9 -44 -4 -100 -9 -125 -11 -25 -3 -76
-7 -115 -10 -98 -7 -194 -15 -235 -20 -19 -2 -69 -7 -110 -10 -175 -13 -198
-19 -232 -58 -9 -10 -22 -34 -28 -53 -14 -43 9 -98 54 -125 32 -20 47 -20 226
-4 43 4 101 9 250 21 36 3 85 7 110 9 25 3 74 7 110 10 85 6 196 16 212 19 89
13 141 105 99 173 -24 39 -59 62 -99 67 -17 3 -32 3 -34 1z"/>
<path d="M4127 3434 c-1 -1 -45 -5 -97 -8 -52 -4 -113 -9 -135 -11 -40 -4
-104 -9 -240 -21 -38 -3 -86 -7 -105 -9 -19 -2 -73 -7 -120 -10 -124 -10 -167
-35 -189 -111 -11 -39 10 -86 50 -115 25 -17 43 -22 88 -20 32 1 66 3 77 5 10
2 69 7 129 11 61 4 117 8 125 10 8 2 56 6 105 9 50 4 108 9 130 11 107 10 194
18 230 20 77 4 145 59 145 119 0 71 -71 129 -150 124 -22 -1 -42 -3 -43 -4z"/>
<path d="M2767 3323 c-2 -2 -56 -7 -177 -19 -30 -3 -64 -7 -75 -9 -11 -2 -25
-4 -32 -4 -24 -2 -73 -54 -84 -90 -22 -74 42 -151 119 -145 48 4 165 14 222
19 172 16 198 25 230 78 25 41 25 83 0 124 -27 45 -51 55 -131 51 -39 -2 -71
-4 -72 -5z"/>
<path d="M5739 2856 c-2 -2 -37 -6 -77 -10 -40 -3 -85 -9 -100 -13 -83 -20
-128 -109 -91 -180 15 -27 83 -63 112 -58 12 2 54 6 92 9 187 17 209 25 244
86 32 57 10 125 -50 156 -25 12 -119 20 -130 10z"/>
<path d="M5028 2795 c-2 -2 -45 -6 -96 -9 -51 -4 -100 -9 -110 -11 -9 -1 -60
-6 -112 -10 -52 -4 -106 -9 -120 -10 -14 -2 -65 -6 -115 -10 -49 -4 -97 -9
-106 -10 -9 -2 -61 -7 -115 -10 -55 -4 -107 -9 -117 -11 -9 -1 -56 -6 -105 -9
-154 -12 -171 -16 -207 -47 -55 -48 -57 -124 -4 -174 28 -27 36 -29 102 -28
40 1 153 9 252 18 99 9 205 19 235 21 51 5 89 8 215 20 85 8 157 14 225 20 61
5 94 8 229 20 67 7 114 34 136 81 26 55 0 120 -62 153 -18 9 -116 14 -125 6z"/>
<path d="M3088 2615 c-2 -2 -48 -6 -103 -9 -55 -4 -116 -9 -135 -11 -19 -2
-69 -7 -110 -10 -215 -15 -238 -23 -270 -90 -25 -51 -25 -62 0 -102 31 -52 70
-66 159 -59 42 3 108 8 146 11 136 10 253 20 374 30 69 7 107 30 132 82 20 42
20 43 1 85 -27 63 -44 73 -123 74 -38 1 -70 0 -71 -1z"/>
<path d="M5848 2135 c-2 -2 -43 -6 -93 -10 -49 -3 -103 -8 -120 -10 -16 -2
-66 -7 -110 -10 -44 -4 -93 -8 -110 -10 -16 -3 -61 -7 -100 -10 -38 -3 -115
-9 -170 -15 -55 -5 -131 -12 -170 -15 -38 -3 -88 -8 -110 -10 -22 -3 -76 -7
-120 -11 -116 -8 -178 -53 -178 -128 0 -90 85 -136 208 -112 11 2 58 7 105 11
47 3 101 8 120 10 19 2 69 6 110 9 41 4 93 9 115 11 22 2 74 6 115 10 41 3 91
8 110 10 19 2 69 7 110 10 41 3 91 8 110 10 19 2 73 7 120 10 47 4 101 11 121
16 51 13 99 71 99 118 0 30 -41 89 -70 101 -26 11 -86 21 -92 15z"/>
<path d="M3897 1963 c-1 0 -45 -4 -97 -7 -96 -6 -234 -17 -280 -21 -14 -2 -37
-3 -52 -4 -36 -1 -92 -51 -105 -95 -9 -29 -8 -42 9 -75 35 -71 77 -79 307 -56
20 2 81 6 136 10 189 12 196 14 239 66 30 35 33 67 9 116 -22 48 -67 73 -121
70 -24 -1 -44 -3 -45 -4z"/>
<path d="M2968 1895 c-2 -1 -39 -6 -83 -9 -44 -4 -91 -9 -105 -11 -14 -2 -56
-7 -94 -10 -84 -8 -104 -15 -138 -51 -39 -43 -45 -91 -16 -134 37 -54 60 -62
163 -55 211 15 327 30 356 47 26 17 58 69 61 100 3 34 -19 80 -47 100 -20 16
-88 31 -97 23z"/>
</g>
</svg>
